<?xml version="1.0" encoding="UTF-8"?>
<svg id="Layer_2" data-name="Layer 2" xmlns="http://www.w3.org/2000/svg" xmlns:xlink="http://www.w3.org/1999/xlink" viewBox="0 0 1140.3 191.9">
  <defs>
    <style>
      .cls-1 {
        clip-path: url(#clippath-11);
      }

      .cls-2 {
        clip-path: url(#clippath-16);
      }

      .cls-3 {
        fill: #0049f1;
      }

      .cls-4 {
        clip-path: url(#clippath-2);
      }

      .cls-5 {
        clip-path: url(#clippath-13);
      }

      .cls-6 {
        fill: #b70bf7;
      }

      .cls-7 {
        clip-path: url(#clippath-15);
      }

      .cls-8 {
        fill: #ff3d97;
      }

      .cls-9 {
        clip-path: url(#clippath-6);
      }

      .cls-10 {
        clip-path: url(#clippath-7);
      }

      .cls-11 {
        clip-path: url(#clippath-1);
      }

      .cls-12 {
        clip-path: url(#clippath-4);
      }

      .cls-13 {
        clip-path: url(#clippath-12);
      }

      .cls-14 {
        clip-path: url(#clippath-9);
      }

      .cls-15 {
        clip-path: url(#clippath);
      }

      .cls-16 {
        fill: none;
      }

      .cls-17 {
        clip-path: url(#clippath-3);
      }

      .cls-18 {
        clip-path: url(#clippath-8);
      }

      .cls-19 {
        clip-path: url(#clippath-18);
      }

      .cls-20 {
        clip-path: url(#clippath-14);
      }

      .cls-21 {
        clip-path: url(#clippath-17);
      }

      .cls-22 {
        clip-path: url(#clippath-5);
      }

      .cls-23 {
        clip-path: url(#clippath-10);
      }

      .cls-24 {
        fill: #fa0;
      }
    </style>
    <clipPath id="clippath">
      <rect class="cls-16" width="1140.3" height="191.9"/>
    </clipPath>
    <clipPath id="clippath-1">
      <rect class="cls-16" width="1140.3" height="191.9"/>
    </clipPath>
    <clipPath id="clippath-2">
      <rect class="cls-16" width="1140.3" height="191.9"/>
    </clipPath>
    <clipPath id="clippath-3">
      <rect class="cls-16" width="1140.3" height="191.9"/>
    </clipPath>
    <clipPath id="clippath-4">
      <rect class="cls-16" width="1140.3" height="191.9"/>
    </clipPath>
    <clipPath id="clippath-5">
      <rect class="cls-16" width="1140.3" height="191.9"/>
    </clipPath>
    <clipPath id="clippath-6">
      <rect class="cls-16" width="1140.3" height="191.9"/>
    </clipPath>
    <clipPath id="clippath-7">
      <rect class="cls-16" width="1140.3" height="191.9"/>
    </clipPath>
    <clipPath id="clippath-8">
      <rect class="cls-16" width="1140.3" height="191.9"/>
    </clipPath>
    <clipPath id="clippath-9">
      <rect class="cls-16" width="1140.3" height="191.9"/>
    </clipPath>
    <clipPath id="clippath-10">
      <rect class="cls-16" width="1140.3" height="191.9"/>
    </clipPath>
    <clipPath id="clippath-11">
      <rect class="cls-16" width="1140.3" height="191.9"/>
    </clipPath>
    <clipPath id="clippath-12">
      <rect class="cls-16" width="1140.3" height="191.9"/>
    </clipPath>
    <clipPath id="clippath-13">
      <rect class="cls-16" width="1140.3" height="191.9"/>
    </clipPath>
    <clipPath id="clippath-14">
      <rect class="cls-16" width="1140.3" height="191.9"/>
    </clipPath>
    <clipPath id="clippath-15">
      <rect class="cls-16" width="1140.3" height="191.9"/>
    </clipPath>
    <clipPath id="clippath-16">
      <rect class="cls-16" width="1140.3" height="191.9"/>
    </clipPath>
    <clipPath id="clippath-17">
      <rect class="cls-16" width="1140.3" height="191.9"/>
    </clipPath>
    <clipPath id="clippath-18">
      <rect class="cls-16" width="1140.3" height="191.9"/>
    </clipPath>
  </defs>
  <g id="Camada_1" data-name="Camada 1">
    <g id="Artwork_7" data-name="Artwork 7">
      <g>
        <g class="cls-15">
          <rect class="cls-3" x="137.9" y="39.8" width="28" height="103.4"/>
        </g>
        <g class="cls-11">
          <rect class="cls-3" x="321.1" y="39.8" width="28" height="103.4"/>
        </g>
        <g class="cls-4">
          <g>
            <g class="cls-17">
              <path class="cls-3" d="M410.5,102.6V62.3h28.1v-22.5h-28.5V12.8h-5.3l-40.8,43.4v6h18.7v44c0,23,14,36.9,36.7,36.9h19.8v-24.9h-12.8c-10.1,.1-15.9-5.6-15.9-15.6"/>
            </g>
            <g class="cls-12">
              <rect class="cls-3" x="590.4" y="2.5" width="28" height="140.7"/>
            </g>
            <g class="cls-22">
              <rect class="cls-3" x="645.1" y="39.8" width="28" height="103.4"/>
            </g>
            <g class="cls-9">
              <polygon class="cls-3" points="776 43.6 776 39.8 694.8 39.8 694.8 65.2 734.6 65.2 690.5 140.1 690.5 143.2 776 143.2 776 117.5 732.4 117.5 776 43.6"/>
            </g>
            <g class="cls-10">
              <rect class="cls-6" x="1112.4" y="39.8" width="28" height="103.4"/>
            </g>
            <g class="cls-18">
              <path class="cls-3" d="M110.6,2.5h-27.6V43c-8.4-4.9-17.9-7.4-27.6-7.4C24.8,35.6,0,60.4,0,91H0c0,30.6,24.8,55.4,55.4,55.4,28.8,0,52.7-22,55.1-50.7v-.2c.2-1.5,.1-93,.1-93M55.4,118.7h0c-15.3,.3-27.9-11.9-28.2-27.1-.3-15.3,11.9-27.9,27.1-28.2h1.1c14.6,0,26.7,11.3,27.6,25.9v3.5c-.9,14.5-13,25.9-27.6,25.9"/>
            </g>
            <g class="cls-14">
              <path class="cls-3" d="M240,35.6h0c-30.6,0-55.3,24.8-55.3,55.3s24.8,55.4,55.3,55.4,55.4-24.8,55.4-55.4-24.8-55.3-55.4-55.3m0,83h0c-15.3,.3-27.9-11.9-28.2-27.1-.3-15.3,11.9-27.9,27.1-28.2h1.1c15.3-.3,27.9,11.9,28.2,27.1,.3,15.3-11.9,27.9-27.1,28.2h-1.1"/>
            </g>
            <g class="cls-23">
              <path class="cls-3" d="M240,164.3h0c-8.3,0-16.2-3.8-21.5-10.2h-31c7.5,22.6,28.7,37.9,52.5,37.9s45-15.3,52.5-37.9h-31c-5.3,6.4-13.2,10.2-21.5,10.2"/>
            </g>
            <g class="cls-1">
              <path class="cls-3" d="M569.7,84.4c-3.3-27.9-26.9-48.8-55-48.8-30.5,0-55.3,24.8-55.3,55.3s24.8,55.3,55.4,55.3c9.7,0,19.2-2.5,27.6-7.3v4.3h27.5l.2-52.2c0-1.5-.4-6.6-.4-6.6m-55,34.3h0c-15.3,.3-27.9-11.9-28.2-27.1-.3-15.3,11.9-27.9,27.1-28.2h1.1c14.6,0,26.7,11.3,27.6,25.9v3.5c-.9,14.5-13,25.8-27.6,25.9h0Z"/>
            </g>
            <g class="cls-13">
              <path class="cls-3" d="M905.9,84.4c-3.3-27.9-26.9-48.8-55-48.8-30.5,0-55.3,24.8-55.3,55.3s24.8,55.3,55.4,55.3c9.7,0,19.2-2.5,27.6-7.4v4.3h27.5l.2-52.2c0-1.4-.4-6.5-.4-6.5m-55,34.3h0c-15.3,.3-27.9-11.9-28.2-27.1-.3-15.3,11.9-27.9,27.1-28.2h1.1c14.6,0,26.7,11.3,27.6,25.9v3.5c-1,14.5-13,25.8-27.6,25.9h0Z"/>
            </g>
            <g class="cls-5">
              <path class="cls-8" d="M1083.8,84.4c-3.3-27.8-26.9-48.8-54.9-48.8-30.6,0-55.3,24.8-55.4,55.3,0,30.6,24.8,55.3,55.4,55.3,9.7,0,19.2-2.5,27.6-7.4v4.3h27.5l.2-52.2c0-1.4-.4-6.5-.4-6.5m-55,34.3h0c-15.3,.3-27.9-11.9-28.2-27.1-.3-15.3,11.9-27.9,27.1-28.2h1.1c14.6,0,26.7,11.3,27.6,25.9v3.5c-.9,14.5-13,25.9-27.6,25.9Z"/>
            </g>
            <g class="cls-20">
              <path class="cls-3" d="M151.8,0c7.7,0,13.9,6.2,13.9,13.9s-6.2,13.9-13.9,13.9-13.9-6.2-13.9-13.9,6.2-13.9,13.9-13.9"/>
            </g>
            <g class="cls-7">
              <path class="cls-3" d="M335.1,.2c7.7,0,13.9,6.2,13.9,13.9s-6.2,13.9-13.9,13.9-13.9-6.2-13.9-13.9S327.4,.2,335.1,.2"/>
            </g>
            <g class="cls-2">
              <path class="cls-3" d="M659.1,.2c7.7,0,13.9,6.2,13.9,13.9s-6.2,13.9-13.9,13.9-13.9-6.2-13.9-13.9,6.2-13.9,13.9-13.9"/>
            </g>
            <g class="cls-21">
              <path class="cls-6" d="M1126.4,.2c7.7,0,13.9,6.2,13.9,13.9s-6.2,13.9-13.9,13.9-13.9-6.2-13.9-13.9,6.2-13.9,13.9-13.9"/>
            </g>
            <g class="cls-19">
              <path class="cls-24" d="M940.6,113.3c8.3,0,14.9,6.7,14.9,15s-6.7,15-14.9,15-14.9-6.7-14.9-15,6.7-15,14.9-15"/>
            </g>
          </g>
        </g>
      </g>
    </g>
  </g>
</svg>