<?xml version="1.0" encoding="UTF-8"?>
<svg id="Layer_2" data-name="Layer 2" xmlns="http://www.w3.org/2000/svg" viewBox="0 0 335.88 44.53">
  <defs>
    <style>
      .cls-1 {
        fill: #444;
      }
    </style>
  </defs>
  <g id="Layer_1-2" data-name="Layer 1">
    <path id="União_12" data-name="União 12" class="cls-1" d="M230.69,44.53V0h1.57V44.53h-1.57Zm79.66-7.92c.12-2.13,1.94-3.76,4.07-3.64,.98,.05,1.89,.48,2.57,1.18l-.85,.8c-.48-.54-1.18-.84-1.9-.83-1.38-.03-2.52,1.06-2.55,2.43s1.06,2.52,2.43,2.55c.04,0,.08,0,.12,0,.73,.01,1.42-.3,1.9-.84l.85,.81c-1.48,1.54-3.92,1.59-5.46,.11-.7-.68-1.13-1.6-1.18-2.57h0Zm-60.62,0c.12-2.13,1.94-3.76,4.07-3.64,.98,.05,1.89,.48,2.57,1.18l-.86,.8c-.48-.54-1.18-.84-1.9-.83-1.38-.03-2.52,1.06-2.55,2.43s1.06,2.52,2.43,2.55c.04,0,.08,0,.12,0,.73,.01,1.42-.3,1.9-.84l.86,.81c-1.48,1.54-3.92,1.59-5.46,.11-.7-.68-1.13-1.6-1.18-2.57h0Zm73.54,3.54v-3.04h-3.69v3.04h-1.32v-7.09h1.32v2.93h3.68v-2.93h1.32v7.09h-1.32Zm-19.2,0v-7.09h5.2v1.1h-3.88v1.84h3.44v1.08h-3.44v1.95h4.02v1.1h-5.34Zm-4.68,0v-5.98h-2.36v-1.12h6.05v1.12h-2.36v5.98h-1.33Zm-10.35,0v-7.09h1.32v5.98h3.73v1.11h-5.05Zm-2.29,0l-.71-1.64h-3.56l-.7,1.64h-1.36l3.21-7.09h1.3l3.22,7.09h-1.38Zm-3.83-2.67h2.68l-1.34-3.1-1.33,3.1Zm-5.83,2.67v-5.98h-2.36v-1.12h6.05v1.12h-2.36v5.98h-1.32Zm-4.69,0v-7.09h1.32v7.09h-1.32Zm-7.29,0v-7.09h2.93c1.87,0,3.03,.95,3.03,2.52s-1.16,2.52-3.03,2.52h-1.61v2.05h-1.32Zm1.32-3.16h1.55c1.16,0,1.76-.52,1.76-1.41s-.6-1.41-1.76-1.41h-1.55v2.82Zm-3.61,3.16l-.71-1.64h-3.56l-.7,1.64h-1.36l3.21-7.09h1.3l3.22,7.09h-1.38Zm-3.83-2.67h2.68l-1.34-3.1-1.33,3.1ZM23.63,31.8c-1.51-.8-2.76-2.03-3.58-3.52-.87-1.64-1.31-3.48-1.26-5.34-.05-1.85,.39-3.69,1.26-5.32,.83-1.49,2.07-2.71,3.58-3.51,1.71-.87,3.6-1.3,5.52-1.25,1.25-.01,2.49,.17,3.69,.54,1.03,.32,1.99,.84,2.81,1.55l-1.54,4.02c-.72-.54-1.5-.97-2.34-1.28-.79-.26-1.61-.38-2.43-.37-1.43-.09-2.84,.44-3.85,1.45-.96,1.17-1.44,2.66-1.34,4.17-.1,1.52,.38,3.02,1.34,4.19,1.01,1.02,2.41,1.55,3.85,1.46,.83,.01,1.65-.11,2.43-.37,.84-.31,1.63-.75,2.34-1.3l1.54,4.02c-.82,.7-1.78,1.23-2.81,1.55-1.19,.38-2.44,.56-3.69,.55-1.92,.05-3.81-.38-5.52-1.26Zm-20.07,.68c-1.27-.31-2.47-.84-3.56-1.55l1.45-3.96c.63,.4,1.3,.73,1.99,1,.73,.29,1.49,.51,2.26,.66,.79,.16,1.59,.24,2.4,.24,.88,.08,1.76-.09,2.54-.48,.43-.26,.7-.72,.71-1.22,.02-.4-.15-.79-.46-1.05-.54-.34-1.14-.56-1.78-.65l-3.38-.69c-1.51-.23-2.91-.9-4.03-1.93-.91-.97-1.4-2.27-1.34-3.6-.03-1.21,.34-2.39,1.04-3.37,.75-1,1.77-1.77,2.93-2.23,1.41-.55,2.91-.82,4.42-.79,1.33,0,2.64,.18,3.91,.57,1.1,.32,2.12,.85,3.01,1.57l-1.45,3.73c-.75-.56-1.6-.98-2.49-1.25-1-.3-2.04-.44-3.09-.43-.84-.05-1.68,.12-2.43,.49-.52,.26-.84,.8-.83,1.38,0,.41,.18,.79,.49,1.05,.53,.37,1.15,.61,1.8,.7l3.34,.66c1.5,.22,2.91,.88,4.03,1.9,.91,.95,1.4,2.23,1.34,3.55,.02,1.19-.34,2.35-1.03,3.31-.74,.99-1.75,1.75-2.9,2.2-1.39,.55-2.88,.81-4.38,.78-1.52,0-3.03-.18-4.51-.57h0Zm164.2-.74c-1.33-.84-2.38-2.05-3.02-3.48-.74-1.68-1.1-3.5-1.05-5.33-.05-1.83,.31-3.66,1.04-5.34,.63-1.43,1.68-2.63,3.01-3.45,2.94-1.62,6.51-1.62,9.45,0,1.34,.83,2.4,2.03,3.06,3.45,.76,1.67,1.12,3.48,1.08,5.31,.05,1.84-.33,3.68-1.09,5.36-.66,1.43-1.73,2.64-3.07,3.48-2.92,1.64-6.49,1.64-9.41,0h0Zm-.47-15.03c-1.19,1.47-1.78,3.55-1.78,6.22,0,2.66,.59,4.73,1.78,6.22,1.19,1.49,2.92,2.23,5.21,2.23,1.97,.1,3.88-.72,5.15-2.23,1.24-1.48,1.86-3.56,1.86-6.23s-.61-4.75-1.84-6.22c-1.29-1.5-3.2-2.31-5.17-2.21-2.28,0-4.02,.74-5.2,2.21h0Zm41.76,16.02V14.67h-7.09v-1.51h15.9v1.51h-7.09v18.06h-1.72Zm-10,0l-2.54-6.51c-.22-.79-.78-1.45-1.52-1.8-.82-.29-1.69-.43-2.56-.4h-5v8.71h-1.72V13.17h7.74c1.68-.11,3.35,.4,4.69,1.42,1.14,1,1.75,2.48,1.67,3.99,.03,1.01-.23,2-.76,2.86-.51,.79-1.23,1.41-2.09,1.8-.4,.18-.81,.32-1.24,.42,.39,.09,.76,.23,1.1,.44,.66,.45,1.16,1.1,1.42,1.85l2.73,6.8h-1.91Zm-11.63-10.15h5.8c1.28,.09,2.55-.27,3.59-1.03,.85-.74,1.3-1.84,1.23-2.96,.07-1.12-.38-2.21-1.23-2.94-1.04-.74-2.31-1.1-3.59-1.01h-5.8v7.94Zm-40.61,10.15V13.17h7.62c1.68-.11,3.35,.41,4.68,1.45,1.13,1.03,1.74,2.51,1.65,4.04,.08,1.52-.53,3-1.65,4.03-1.32,1.05-2.99,1.57-4.68,1.46h-5.9v8.59h-1.72Zm1.72-10.07h5.78c1.26,.09,2.5-.28,3.5-1.05,.82-.76,1.25-1.85,1.19-2.96,.07-1.12-.37-2.2-1.19-2.96-1-.77-2.24-1.14-3.5-1.05h-5.78v8.02Zm-17.96,10.07V13.17h12.18v1.48h-10.49v7.43h9.88v1.48h-9.88v7.7h10.49v1.48h-12.18Zm-5.75,0l-2.54-6.51c-.22-.79-.78-1.45-1.52-1.8-.82-.29-1.69-.43-2.57-.4h-5v8.71h-1.72V13.17h7.74c1.68-.11,3.35,.4,4.69,1.42,1.14,1,1.75,2.48,1.67,3.99,.03,1.01-.23,2-.76,2.86-.51,.79-1.23,1.41-2.09,1.8-.4,.18-.81,.32-1.24,.42,.39,.09,.76,.23,1.1,.44,.66,.45,1.16,1.1,1.42,1.85l2.73,6.8h-1.91Zm-11.64-10.15h5.8c1.28,.09,2.55-.27,3.59-1.03,.85-.74,1.3-1.84,1.23-2.96,.07-1.12-.38-2.21-1.23-2.94-1.04-.74-2.31-1.1-3.59-1.01h-5.8v7.94Zm-34.85,10.15V13.17h14.04v3.92h-9.14v3.75h8.48v3.93h-8.48v4.04h9.14v3.93h-14.04Zm-18.99,0V13.17h9.59c2.25,0,3.96,.55,5.11,1.65,1.19,1.18,1.81,2.81,1.73,4.48,.08,1.67-.55,3.29-1.73,4.47-1.15,1.11-2.86,1.67-5.11,1.67h-4.47v7.3h-5.12Zm5.12-11.23h3.81c.7,.06,1.4-.15,1.96-.57,.44-.42,.68-1.02,.64-1.63,.04-.61-.2-1.21-.64-1.63-.56-.43-1.26-.63-1.96-.57h-3.81v4.42Zm-11.48,11.23l-1.73-3.96h-8.82l-1.73,3.96h-5.12l9.14-19.57h4.19l9.22,19.57h-5.14Zm-8.88-7.86h5.56l-2.73-6.43h-.13l-2.69,6.43Zm218.28,.74l2.14-6.98c-.33,.25-.59,.46-.87,.65-.99,.71-2.21,1.01-3.41,.84-1.26-.11-2.26-1.12-2.35-2.39-.09-.92,0-1.85,.3-2.73,.71-2.33,2.24-7.36,2.26-7.36,1.04,.02,2.47,0,3.56,0-.38,1.24-.74,2.42-1.1,3.6-.47,1.52-.94,3.03-1.39,4.55-.09,.28-.14,.56-.15,.85-.04,.8,.48,1.24,1.25,.98,.44-.14,.84-.38,1.17-.7,1.15-1.16,2.02-2.58,2.54-4.13,.52-1.56,.97-3.14,1.45-4.71,.04-.14,.09-.27,.15-.43,.93,.37,1.84,.72,2.75,1.1,.14,.06,.43,.16,.43,.16,.08-.1,.17-.19,.26-.27,1.01-.9,2.36-1.33,3.7-1.17,1.69,.25,3,1.61,3.19,3.31,.23,1.55,.02,3.13-.59,4.57-.05,.13-.11,.27-.19,.47,.88-.19,1.67-.67,2.25-1.36,.18-.22,.3-.47,.36-.75,.51-2.6,1.82-4.63,4.3-5.76,1.31-.6,2.79-.71,4.17-.31,1.3,.25,2.34,1.24,2.66,2.52,.3,1.35-.2,2.75-1.29,3.6-1.13,.97-2.54,1.54-4.03,1.65-.65,.08-1.3,.09-1.99,.13,.16,.88,.76,1.62,1.6,1.95,1.25,.49,2.66,.37,3.82-.3,1.83-.93,3.21-2.55,3.83-4.51,.98-3.06,3-9.64,3-9.64,0,0,2.48,0,3.55,0-.21,.69-.4,1.32-.59,1.94-1.1,3.57-2.2,7.13-3.3,10.7-.09,.28-.15,.56-.19,.84-.11,.82,.45,1.36,1.24,1.09,.52-.18,.98-.48,1.36-.88,1.09-1.16,1.91-2.55,2.4-4.06,.49-1.55,.97-3.11,1.44-4.67,.03-.24,.25-.41,.49-.37,0,0,.01,0,.02,0,1.03,.02,2.05,0,3.15,0-.12,.42-.22,.79-.34,1.15-.7,2.27-1.4,4.55-2.09,6.82-.11,.31-.18,.64-.22,.97-.06,.87,.5,1.33,1.32,1.01,.5-.19,.94-.49,1.3-.88,1.28-1.42,2.2-3.13,2.68-4.98,.37-1.36,.82-2.7,1.25-4.09,1.03,.52,2.23,1.15,3.13,1.61,1.11-1.86,3.36-1.89,4.14-1.74,1.37,.25,2.34,1.5,2.24,2.89-.03,.83-.15,1.66-.37,2.46-.29,1.13-.68,2.23-1.01,3.35-.08,.26-.13,.53-.14,.8-.06,.32,.15,.63,.47,.69,.13,.02,.27,0,.39-.06,.27-.09,.53-.24,.75-.42,.89-.8,1.62-1.78,2.12-2.87,.13-.41,.21-.83,.26-1.26,.71-2.6,2.19-4.52,4.85-5.38,1.1-.36,2.27-.38,3.38-.08,1.34,.23,2.41,1.23,2.74,2.55,.3,1.32-.18,2.69-1.23,3.55-1.14,1-2.58,1.6-4.09,1.7-.65,.08-1.3,.09-1.95,.13,.24,1.28,1.35,2.21,2.65,2.22,1.77,.11,3.48-.63,4.62-1.98,.72-.85,1.38-1.76,1.97-2.71,0,0,1.34,.7,1.34,.73-.43,.75-.85,1.58-1.33,2.3-1.23,2-3.21,3.42-5.5,3.94-1.28,.29-2.61,.26-3.87-.07-1.6-.39-2.91-1.55-3.48-3.09-.12,.15-.22,.28-.32,.4-.78,1.15-1.87,2.04-3.14,2.58-.46,.17-.95,.27-1.44,.29-1.27,.19-2.45-.69-2.64-1.96-.02-.17-.03-.34-.02-.5,.02-.88,.14-1.75,.37-2.59,.26-1.09,.68-2.15,.91-3.24,.23-1.08-.51-1.72-1.57-1.41-1.04,.25-1.86,1.02-2.18,2.04-.72,2.34-1.61,5.1-2.31,7.45h-3.51c.13-.43,.24-.83,.36-1.23-.55,.34-1.05,.7-1.6,.99-.88,.46-1.9,.6-2.87,.39-.96-.15-1.74-.85-1.99-1.78-.05-.16-.09-.33-.16-.57-.16,.17-.28,.31-.4,.44-.91,1.09-2.2,1.79-3.61,1.97-1.77,.17-3.21-.58-3.43-2.47-.02-.05-.04-.11-.07-.16-.2,.18-.38,.36-.57,.52-2.39,2.1-6.01,2.57-8.16,1.78-1.46-.43-2.61-1.58-3.04-3.04-.04-.12-.09-.24-.14-.4-1.07,.91-2.47,1.36-3.87,1.24-.31,.39-.65,.75-1.02,1.09-1.01,1.06-2.46,1.58-3.91,1.42-1.28-.09-2.38-.92-2.83-2.13-.04-.09-.08-.18-.15-.33-.52,1.69-1.02,3.3-1.52,4.92-.27,.87-.71,2.12-.95,2.99h-3.53Zm7.1-10.06c.15,.98,1.07,1.65,2.05,1.5,.31-.05,.6-.18,.85-.37-1.67-1.48-1.79-1.68-2.33-4.08-.52,.89-.71,1.93-.56,2.95h0Zm2.24-4.03c-.42,1.63,.44,3.32,2,3.94,.83-1.11,1.18-2.51,.96-3.89-.07-.74-.69-1.31-1.43-1.32h-.04c-.74,0-1.36,.54-1.49,1.26h0Zm56.28-1.06c-1.41,.18-2.73,1.8-2.78,3.41,1.16,.05,2.31-.26,3.28-.89,.28-.2,.52-.46,.7-.75,.3-.39,.31-.93,.04-1.34-.21-.3-.57-.47-.94-.45-.1,0-.2,0-.3,.02h0Zm-42.67,.57c-.84,.72-1.38,1.72-1.51,2.82,1.15,.07,2.29-.21,3.27-.81,.46-.28,.8-.73,.95-1.25,.17-.53-.12-1.1-.65-1.27-.06-.02-.13-.03-.2-.04-.12-.02-.25-.03-.37-.03-.55,.01-1.07,.22-1.49,.58h0ZM99.47,23.05c0-1.3,1.06-2.36,2.36-2.36,1.3,0,2.36,1.06,2.36,2.36s-1.06,2.36-2.36,2.36h0c-1.3,0-2.36-1.06-2.36-2.36Zm142.1-3.11c1.59-5.18,3.16-10.3,4.74-15.44-2.93,.37-5.32,3.24-3.38,7.02l-2.52,2.03c-.63-.62-1.09-1.39-1.32-2.24-.27-1.04-.36-2.13-.24-3.2,.18-1.1,.64-2.14,1.34-3,1.25-1.52,2.98-2.57,4.9-2.99,.75-.21,1.51-.35,2.29-.44,1.73-.18,3.48-.03,5.16,.44,1.7,.34,3.24,1.25,4.38,2.57,1.74,2.15,1.8,4.52,.66,6.94-1.34,2.75-4.24,4.39-7.29,4.12-1.21-.07-2.39-.4-3.46-.96-.23,.73-.45,1.42-.66,2.12-.29,.92-.98,3.05-.98,3.05h-3.62Zm6.01-7.66c0,.13,.06,.24,.17,.31,2.35,1.07,5.13,.1,6.29-2.21,.87-1.94,.44-3.92-1.13-5.04-.86-.58-1.86-.93-2.89-1.02-.82,2.68-1.64,5.32-2.43,7.96h0Zm15.66-6.01c-1.11,.01-2.02-.88-2.03-1.99,0-.03,0-.06,0-.1-.04-1.15,.87-2.11,2.02-2.15,1.15-.04,2.11,.87,2.15,2.02,0,.06,0,.12,0,.18,0,1.11-.89,2.02-2,2.03-.03,0-.07,0-.1,0h-.03Zm41.73,0c-1.1,.03-2.02-.83-2.05-1.93,0-.04,0-.09,0-.13-.02-1.14,.89-2.09,2.03-2.11,1.14-.02,2.09,.89,2.11,2.03,0,.03,0,.05,0,.08,.03,1.11-.85,2.03-1.96,2.06-.04,0-.09,0-.13,0h0Z"/>
  </g>
</svg>