<?xml version="1.0" encoding="UTF-8"?>
<svg id="Layer_2" data-name="Layer 2" xmlns="http://www.w3.org/2000/svg" viewBox="0 0 217.86 20.21">
  <defs>
    <style>
      .cls-1 {
        fill: #fff;
      }
    </style>
  </defs>
  <g id="Layer_1-2" data-name="Layer 1">
    <path id="União_12" data-name="União 12" class="cls-1" d="M23.63,18.95c-1.51-.8-2.76-2.03-3.58-3.52-.87-1.64-1.31-3.48-1.26-5.34-.05-1.85,.39-3.69,1.26-5.32,.83-1.49,2.07-2.71,3.58-3.51C25.34,.38,27.24-.05,29.15,0c1.25-.01,2.49,.17,3.69,.54,1.03,.32,1.99,.84,2.81,1.55l-1.54,4.02c-.72-.54-1.5-.97-2.34-1.28-.79-.26-1.61-.38-2.43-.37-1.43-.09-2.84,.44-3.85,1.45-.96,1.17-1.44,2.66-1.34,4.17-.1,1.52,.38,3.02,1.34,4.19,1.01,1.02,2.41,1.55,3.85,1.46,.83,.01,1.65-.11,2.43-.37,.84-.31,1.63-.75,2.34-1.3l1.54,4.02c-.82,.7-1.78,1.23-2.81,1.55-1.19,.38-2.44,.56-3.69,.55-1.92,.05-3.81-.38-5.52-1.26Zm-20.07,.68c-1.27-.31-2.47-.84-3.56-1.55l1.45-3.96c.63,.4,1.3,.73,1.99,1,.73,.29,1.49,.51,2.26,.66,.79,.16,1.59,.24,2.4,.24,.88,.08,1.76-.09,2.54-.48,.43-.26,.7-.72,.71-1.22,.02-.4-.15-.79-.46-1.05-.54-.34-1.14-.56-1.78-.65l-3.38-.69c-1.51-.23-2.91-.9-4.03-1.93-.91-.97-1.4-2.27-1.34-3.6-.03-1.21,.34-2.39,1.04-3.37,.75-1,1.77-1.77,2.93-2.23C5.73,.24,7.23-.03,8.74,0c1.33,0,2.64,.18,3.91,.57,1.1,.32,2.12,.85,3.01,1.57l-1.45,3.73c-.75-.56-1.6-.98-2.49-1.25-1-.3-2.04-.44-3.09-.43-.84-.05-1.68,.12-2.43,.49-.52,.26-.84,.8-.83,1.38,0,.41,.18,.79,.49,1.05,.53,.37,1.15,.61,1.8,.7l3.34,.66c1.5,.22,2.91,.88,4.03,1.9,.91,.95,1.4,2.23,1.34,3.55,.02,1.19-.34,2.35-1.03,3.31-.74,.99-1.75,1.75-2.9,2.2-1.39,.55-2.88,.81-4.38,.78-1.52,0-3.03-.18-4.51-.57h0Zm164.2-.74c-1.33-.84-2.38-2.05-3.02-3.48-.74-1.68-1.1-3.5-1.05-5.33-.05-1.83,.31-3.66,1.04-5.34,.63-1.43,1.68-2.63,3.01-3.45,2.94-1.62,6.51-1.62,9.45,0,1.34,.83,2.4,2.03,3.06,3.45,.76,1.67,1.12,3.48,1.08,5.31,.05,1.84-.33,3.68-1.09,5.36-.66,1.43-1.73,2.64-3.07,3.48-2.92,1.64-6.49,1.64-9.41,0h0Zm-.47-15.03c-1.19,1.47-1.78,3.55-1.78,6.22,0,2.66,.59,4.73,1.78,6.22,1.19,1.49,2.92,2.23,5.21,2.23,1.97,.1,3.88-.72,5.15-2.23,1.24-1.48,1.86-3.56,1.86-6.23s-.61-4.75-1.84-6.22c-1.29-1.5-3.2-2.31-5.17-2.21-2.28,0-4.02,.74-5.2,2.21h0Zm41.76,16.02V1.82h-7.09V.32h15.9V1.82h-7.09V19.89h-1.72Zm-10,0l-2.54-6.51c-.22-.79-.78-1.45-1.52-1.8-.82-.29-1.69-.43-2.56-.4h-5v8.71h-1.72V.31h7.74c1.68-.11,3.35,.4,4.69,1.42,1.14,1,1.75,2.48,1.67,3.99,.03,1.01-.23,2-.76,2.86-.51,.79-1.23,1.41-2.09,1.8-.4,.18-.81,.32-1.24,.42,.39,.09,.76,.23,1.1,.44,.66,.45,1.16,1.1,1.42,1.85l2.73,6.8h-1.91Zm-11.63-10.15h5.8c1.28,.09,2.55-.27,3.59-1.03,.85-.74,1.3-1.84,1.23-2.96,.07-1.12-.38-2.21-1.23-2.94-1.04-.74-2.31-1.1-3.59-1.01h-5.8v7.94Zm-40.61,10.15V.31h7.62c1.68-.11,3.35,.41,4.68,1.45,1.13,1.03,1.74,2.51,1.65,4.04,.08,1.52-.53,3-1.65,4.03-1.32,1.05-2.99,1.57-4.68,1.46h-5.9v8.59h-1.72Zm1.72-10.07h5.78c1.26,.09,2.5-.28,3.5-1.05,.82-.76,1.25-1.85,1.19-2.96,.07-1.12-.37-2.2-1.19-2.96-1-.77-2.24-1.14-3.5-1.05h-5.78V9.81Zm-17.96,10.07V.31h12.18V1.79h-10.49v7.43h9.88v1.48h-9.88v7.7h10.49v1.48h-12.18Zm-5.75,0l-2.54-6.51c-.22-.79-.78-1.45-1.52-1.8-.82-.29-1.69-.43-2.57-.4h-5v8.71h-1.72V.31h7.74c1.68-.11,3.35,.4,4.69,1.42,1.14,1,1.75,2.48,1.67,3.99,.03,1.01-.23,2-.76,2.86-.51,.79-1.23,1.41-2.09,1.8-.4,.18-.81,.32-1.24,.42,.39,.09,.76,.23,1.1,.44,.66,.45,1.16,1.1,1.42,1.85l2.73,6.8h-1.91Zm-11.64-10.15h5.8c1.28,.09,2.55-.27,3.59-1.03,.85-.74,1.3-1.84,1.23-2.96,.07-1.12-.38-2.21-1.23-2.94-1.04-.74-2.31-1.1-3.59-1.01h-5.8v7.94Zm-34.85,10.15V.31h14.04v3.92h-9.14v3.75h8.48v3.93h-8.48v4.04h9.14v3.93h-14.04Zm-18.99,0V.31h9.59c2.25,0,3.96,.55,5.11,1.65,1.19,1.18,1.81,2.81,1.73,4.48,.08,1.67-.55,3.29-1.73,4.47-1.15,1.11-2.86,1.67-5.11,1.67h-4.47v7.3h-5.12Zm5.12-11.23h3.81c.7,.06,1.4-.15,1.96-.57,.44-.42,.68-1.02,.64-1.63,.04-.61-.2-1.21-.64-1.63-.56-.43-1.26-.63-1.96-.57h-3.81v4.42Zm-11.48,11.23l-1.73-3.96h-8.82l-1.73,3.96h-5.12L44.73,.31h4.19l9.22,19.57h-5.14Zm-8.88-7.86h5.56l-2.73-6.43h-.13l-2.69,6.43Zm55.35-1.83c0-1.3,1.06-2.36,2.36-2.36,1.3,0,2.36,1.06,2.36,2.36s-1.06,2.36-2.36,2.36h0c-1.3,0-2.36-1.06-2.36-2.36Z"/>
  </g>
</svg>