<svg width="1116" height="237" viewBox="0 0 1116 237" fill="none" xmlns="http://www.w3.org/2000/svg">
<g clip-path="url(#clip0_15_205)">
<path d="M121.069 103.12C113.307 98.7423 106.943 92.0969 102.712 83.9271C98.2239 75.0145 96.0166 65.0074 96.2373 54.883C96.0166 44.7977 98.2239 34.8297 102.712 25.9171C106.979 17.7864 113.344 11.141 121.069 6.802C129.788 2.07208 139.537 -0.273336 149.322 0.000295654C155.724 -0.0778849 162.088 0.899372 168.231 2.93207C173.529 4.65204 178.422 7.54472 182.616 11.3756L174.743 33.2661C171.064 30.3343 167.054 27.9889 162.75 26.2689C158.74 24.8617 154.509 24.1972 150.279 24.2753C142.958 23.7672 135.748 26.6599 130.561 32.1716C125.631 38.5433 123.203 46.6741 123.718 54.883C123.203 63.1311 125.631 71.3009 130.561 77.7117C135.748 83.2626 142.921 86.1552 150.279 85.6471C154.509 85.7252 158.74 85.0216 162.75 83.6535C167.054 81.9335 171.101 79.549 174.743 76.5781L182.616 98.4687C178.422 102.3 173.492 105.153 168.231 106.912C162.125 108.984 155.76 109.961 149.322 109.883C139.5 110.157 129.788 107.811 121.069 103.042V103.12ZM18.2468 106.834C11.7722 105.114 5.59177 102.26 0 98.3905L7.43117 76.8518C10.6685 79.0017 14.053 80.839 17.6214 82.2853C21.3738 83.8489 25.2733 85.0216 29.2097 85.8816C33.2563 86.7416 37.3766 87.1716 41.4968 87.1716C45.985 87.6016 50.5099 86.6634 54.5198 84.5525C56.7271 83.1453 58.0882 80.6435 58.125 77.9072C58.2354 75.7181 57.3525 73.6073 55.7706 72.2C53.0115 70.3628 49.9213 69.151 46.6839 68.6819L29.3568 64.9292C21.6313 63.6783 14.4577 60.0429 8.68196 54.4139C4.00989 49.1368 1.50831 42.0614 1.80261 34.7906C1.65546 28.2235 3.53165 21.7736 7.13687 16.4573C10.9996 11.0237 16.1867 6.84109 22.1831 4.33931C29.3568 1.29027 37.0455 -0.156065 44.8078 0.000295654C51.6135 -0.0387946 58.3457 1.01664 64.8572 3.12752C70.4858 4.84749 75.7097 7.74017 80.2714 11.6883L72.877 31.9761C69.0142 28.9271 64.6733 26.6208 60.1116 25.1353C54.998 23.4935 49.6638 22.7117 44.2927 22.7899C39.9885 22.5163 35.7211 23.4545 31.8584 25.4481C29.2097 26.8944 27.5542 29.7871 27.591 32.9534C27.591 35.1815 28.5107 37.2924 30.1294 38.6997C32.8517 40.7323 36.0154 42.0223 39.3263 42.4914L56.4328 46.0877C64.1214 47.2604 71.3319 50.8567 77.0708 56.4075C81.7429 61.5675 84.2077 68.5646 83.9502 75.7181C84.0605 82.168 82.2211 88.5006 78.6527 93.6997C74.8267 99.055 69.7132 103.199 63.8271 105.661C56.6903 108.632 49.0752 110.078 41.3865 109.922C33.5874 109.961 25.8252 108.945 18.3204 106.834H18.2468ZM859.367 102.808C852.561 98.2341 847.19 91.667 843.916 83.8489C840.127 74.7409 838.288 64.812 838.508 54.8439C838.251 44.8759 840.09 34.947 843.806 25.7608C847.043 17.9818 852.414 11.4537 859.22 6.95836C874.303 -1.83695 892.587 -1.83695 907.633 6.95836C914.476 11.4537 919.92 17.9818 923.305 25.7608C927.167 34.8297 929.044 44.7196 928.823 54.6876C929.08 64.7338 927.167 74.7018 923.231 83.8489C919.847 91.6279 914.365 98.2341 907.523 102.769C892.55 111.681 874.303 111.681 859.33 102.769L859.367 102.808ZM856.939 20.9918C850.869 29.0053 847.816 40.3024 847.816 54.883C847.816 69.3464 850.869 80.6435 856.939 88.7743C863.009 96.866 871.912 100.931 883.61 100.931C893.69 101.479 903.476 96.9832 910.024 88.8134C916.352 80.7217 919.552 69.4246 919.552 54.883C919.552 40.3414 916.388 29.0444 910.098 20.9918C903.513 12.8219 893.727 8.4047 883.61 8.99106C871.912 8.99106 863.046 13.0174 856.939 21.0309V20.9918ZM1070.86 108.202V9.92922H1034.55V1.72027H1116V9.92922H1079.69V108.241H1070.9L1070.86 108.202ZM1019.65 108.202L1006.63 72.7864C1005.49 68.4864 1002.66 64.8901 998.83 62.9747C994.637 61.372 990.148 60.6293 985.697 60.7857H960.056V108.202H951.263V1.72027H990.884C999.529 1.13391 1008.06 3.87023 1014.94 9.46014C1020.76 14.9328 1023.92 22.9463 1023.48 31.1943C1023.63 36.667 1022.26 42.0614 1019.58 46.7523C1016.97 51.0522 1013.25 54.453 1008.87 56.5248C1006.85 57.5412 1004.72 58.2839 1002.51 58.8311C1004.5 59.3002 1006.41 60.082 1008.14 61.2156C1011.52 63.6392 1014.1 67.1965 1015.42 71.3009L1029.4 108.319H1019.62L1019.65 108.202ZM960.056 52.9676H989.78C996.329 53.4367 1002.84 51.4822 1008.17 47.3777C1012.52 43.3514 1014.83 37.3706 1014.47 31.2725C1014.83 25.1744 1012.52 19.2327 1008.17 15.2455C1002.84 11.2192 996.329 9.26469 989.78 9.73377H960.056V53.0067V52.9676ZM752.02 108.202V1.72027H791.052C799.697 1.13391 808.195 3.94841 815.001 9.6165C820.776 15.2064 823.904 23.2981 823.462 31.6243C823.867 39.9115 820.776 47.9641 815.001 53.554C808.232 59.2611 799.697 62.1147 791.052 61.5284H760.812V108.28H752.02V108.202ZM760.812 53.3585H790.426C796.864 53.8667 803.229 51.834 808.342 47.6513C812.536 43.5078 814.78 37.6051 814.412 31.507C814.743 25.4481 812.536 19.5063 808.342 15.3628C803.229 11.1801 796.828 9.14742 790.426 9.65559H760.812V53.3976V53.3585ZM668.805 108.202V1.72027H731.198V9.73377H677.451V50.1531H728.034V58.2057H677.451V100.15H731.198V108.202H668.805ZM639.338 108.202L626.315 72.7864C625.175 68.4864 622.342 64.8901 618.516 62.9747C614.286 61.372 609.834 60.6293 605.383 60.7857H579.742V108.202H570.949V1.72027H610.57C619.215 1.13391 627.75 3.87023 634.629 9.46014C640.442 14.9328 643.606 22.9463 643.164 31.1943C643.311 36.667 641.95 42.0614 639.265 46.7523C636.653 51.0522 632.937 54.453 628.559 56.5248C626.536 57.5021 624.402 58.2839 622.195 58.8311C624.182 59.3002 626.095 60.082 627.824 61.2156C631.208 63.6392 633.783 67.1965 635.108 71.3009L649.087 108.319H639.338V108.202ZM579.742 52.9676H609.466C616.015 53.4367 622.526 51.4822 627.86 47.3777C632.201 43.3514 634.519 37.3706 634.151 31.2725C634.519 25.1744 632.165 19.2327 627.86 15.2455C622.526 11.2192 616.015 9.26469 609.466 9.73377H579.742V53.0067V52.9676ZM401.21 108.202V1.72027H473.13V23.0635H426.299V43.4687H469.746V64.851H426.299V86.8588H473.13V108.241H401.21V108.202ZM303.942 108.202V1.72027H353.091C364.642 1.72027 373.361 4.73022 379.247 10.711C385.317 17.1218 388.555 25.9953 388.113 35.1034C388.518 44.1723 385.28 53.0067 379.247 59.4175C373.361 65.4765 364.606 68.5255 353.091 68.5255H330.209V108.28H303.979L303.942 108.202ZM330.172 47.065H349.67C353.275 47.3777 356.843 46.2441 359.676 43.9377C361.957 41.6314 363.134 38.3869 362.95 35.0643C363.134 31.7416 361.957 28.4971 359.676 26.1517C356.807 23.8454 353.238 22.7117 349.67 23.0245H330.172V47.065ZM271.385 108.202L262.519 86.6634H217.343L208.477 108.202H182.284L229.152 1.72027H250.6L297.799 108.241H271.458L271.385 108.202ZM225.915 65.3983H254.389L240.373 30.4125H239.71L225.915 65.3983ZM509.44 55.4303C509.44 48.355 514.848 42.6087 521.506 42.6087C528.165 42.6087 533.573 48.355 533.573 55.4303C533.573 62.5056 528.165 68.2519 521.506 68.2519C514.848 68.2519 509.44 62.5056 509.44 55.4303Z" fill="white"/>
</g>
<path d="M292.2 185.2C295.16 185.2 297.84 185.88 300.24 187.24C302.64 188.56 304.52 190.44 305.88 192.88C307.24 195.32 307.92 198.1 307.92 201.22C307.92 204.34 307.24 207.12 305.88 209.56C304.52 212 302.64 213.9 300.24 215.26C297.84 216.62 295.16 217.3 292.2 217.3C289.56 217.3 287.18 216.74 285.06 215.62C282.98 214.5 281.3 212.88 280.02 210.76V217H275.94V172.48H280.2V191.44C281.52 189.4 283.2 187.86 285.24 186.82C287.32 185.74 289.64 185.2 292.2 185.2ZM291.9 213.52C294.1 213.52 296.1 213.02 297.9 212.02C299.7 210.98 301.1 209.52 302.1 207.64C303.14 205.76 303.66 203.62 303.66 201.22C303.66 198.82 303.14 196.68 302.1 194.8C301.1 192.92 299.7 191.48 297.9 190.48C296.1 189.44 294.1 188.92 291.9 188.92C289.66 188.92 287.64 189.44 285.84 190.48C284.08 191.48 282.68 192.92 281.64 194.8C280.64 196.68 280.14 198.82 280.14 201.22C280.14 203.62 280.64 205.76 281.64 207.64C282.68 209.52 284.08 210.98 285.84 212.02C287.64 213.02 289.66 213.52 291.9 213.52ZM342.245 185.44L326.465 220.78C325.185 223.74 323.705 225.84 322.025 227.08C320.345 228.32 318.325 228.94 315.965 228.94C314.445 228.94 313.025 228.7 311.705 228.22C310.385 227.74 309.245 227.02 308.285 226.06L310.265 222.88C311.865 224.48 313.785 225.28 316.025 225.28C317.465 225.28 318.685 224.88 319.685 224.08C320.725 223.28 321.685 221.92 322.565 220L323.945 216.94L309.845 185.44H314.285L326.165 212.26L338.045 185.44H342.245ZM414.561 157.64V217H402.641V212.04C399.548 215.773 395.068 217.64 389.201 217.64C385.148 217.64 381.468 216.733 378.161 214.92C374.908 213.107 372.348 210.52 370.481 207.16C368.614 203.8 367.681 199.907 367.681 195.48C367.681 191.053 368.614 187.16 370.481 183.8C372.348 180.44 374.908 177.853 378.161 176.04C381.468 174.227 385.148 173.32 389.201 173.32C394.694 173.32 398.988 175.053 402.081 178.52V157.64H414.561ZM391.361 207.4C394.508 207.4 397.121 206.333 399.201 204.2C401.281 202.013 402.321 199.107 402.321 195.48C402.321 191.853 401.281 188.973 399.201 186.84C397.121 184.653 394.508 183.56 391.361 183.56C388.161 183.56 385.521 184.653 383.441 186.84C381.361 188.973 380.321 191.853 380.321 195.48C380.321 199.107 381.361 202.013 383.441 204.2C385.521 206.333 388.161 207.4 391.361 207.4ZM426.112 173.96H438.592V217H426.112V173.96ZM432.352 167.96C430.058 167.96 428.192 167.293 426.752 165.96C425.312 164.627 424.592 162.973 424.592 161C424.592 159.027 425.312 157.373 426.752 156.04C428.192 154.707 430.058 154.04 432.352 154.04C434.645 154.04 436.512 154.68 437.952 155.96C439.392 157.24 440.112 158.84 440.112 160.76C440.112 162.84 439.392 164.573 437.952 165.96C436.512 167.293 434.645 167.96 432.352 167.96ZM494.574 173.96V209.8C494.574 217.693 492.521 223.56 488.414 227.4C484.307 231.24 478.307 233.16 470.414 233.16C466.254 233.16 462.307 232.653 458.574 231.64C454.841 230.627 451.747 229.16 449.294 227.24L454.254 218.28C456.067 219.773 458.361 220.947 461.134 221.8C463.907 222.707 466.681 223.16 469.454 223.16C473.774 223.16 476.947 222.173 478.974 220.2C481.054 218.28 482.094 215.347 482.094 211.4V209.56C478.841 213.133 474.307 214.92 468.494 214.92C464.547 214.92 460.921 214.067 457.614 212.36C454.361 210.6 451.774 208.147 449.854 205C447.934 201.853 446.974 198.227 446.974 194.12C446.974 190.013 447.934 186.387 449.854 183.24C451.774 180.093 454.361 177.667 457.614 175.96C460.921 174.2 464.547 173.32 468.494 173.32C474.734 173.32 479.481 175.373 482.734 179.48V173.96H494.574ZM470.974 204.68C474.281 204.68 476.974 203.72 479.054 201.8C481.187 199.827 482.254 197.267 482.254 194.12C482.254 190.973 481.187 188.44 479.054 186.52C476.974 184.547 474.281 183.56 470.974 183.56C467.667 183.56 464.947 184.547 462.814 186.52C460.681 188.44 459.614 190.973 459.614 194.12C459.614 197.267 460.681 199.827 462.814 201.8C464.947 203.72 467.667 204.68 470.974 204.68ZM506.19 173.96H518.67V217H506.19V173.96ZM512.43 167.96C510.136 167.96 508.27 167.293 506.83 165.96C505.39 164.627 504.67 162.973 504.67 161C504.67 159.027 505.39 157.373 506.83 156.04C508.27 154.707 510.136 154.04 512.43 154.04C514.723 154.04 516.59 154.68 518.03 155.96C519.47 157.24 520.19 158.84 520.19 160.76C520.19 162.84 519.47 164.573 518.03 165.96C516.59 167.293 514.723 167.96 512.43 167.96ZM558.012 214.92C556.786 215.827 555.266 216.52 553.452 217C551.692 217.427 549.826 217.64 547.852 217.64C542.732 217.64 538.759 216.333 535.932 213.72C533.159 211.107 531.772 207.267 531.772 202.2V184.52H525.132V174.92H531.772V164.44H544.252V174.92H554.972V184.52H544.252V202.04C544.252 203.853 544.706 205.267 545.612 206.28C546.572 207.24 547.906 207.72 549.612 207.72C551.586 207.72 553.266 207.187 554.652 206.12L558.012 214.92ZM582.378 173.32C589.044 173.32 594.164 174.92 597.738 178.12C601.311 181.267 603.098 186.04 603.098 192.44V217H591.418V211.64C589.071 215.64 584.698 217.64 578.298 217.64C574.991 217.64 572.111 217.08 569.658 215.96C567.258 214.84 565.418 213.293 564.138 211.32C562.858 209.347 562.218 207.107 562.218 204.6C562.218 200.6 563.711 197.453 566.698 195.16C569.738 192.867 574.404 191.72 580.698 191.72H590.618C590.618 189 589.791 186.92 588.138 185.48C586.484 183.987 584.004 183.24 580.698 183.24C578.404 183.24 576.138 183.613 573.898 184.36C571.711 185.053 569.844 186.013 568.298 187.24L563.818 178.52C566.164 176.867 568.964 175.587 572.218 174.68C575.524 173.773 578.911 173.32 582.378 173.32ZM581.418 209.24C583.551 209.24 585.444 208.76 587.098 207.8C588.751 206.787 589.924 205.32 590.618 203.4V199H582.058C576.938 199 574.378 200.68 574.378 204.04C574.378 205.64 574.991 206.92 576.218 207.88C577.498 208.787 579.231 209.24 581.418 209.24ZM614.393 157.64H626.873V217H614.393V157.64ZM638.455 173.96H650.935V217H638.455V173.96ZM644.695 167.96C642.402 167.96 640.535 167.293 639.095 165.96C637.655 164.627 636.935 162.973 636.935 161C636.935 159.027 637.655 157.373 639.095 156.04C640.535 154.707 642.402 154.04 644.695 154.04C646.989 154.04 648.855 154.68 650.295 155.96C651.735 157.24 652.455 158.84 652.455 160.76C652.455 162.84 651.735 164.573 650.295 165.96C648.855 167.293 646.989 167.96 644.695 167.96ZM697.958 207.4V217H659.558V209.48L681.478 183.56H660.118V173.96H697.238V181.48L675.318 207.4H697.958ZM723.315 173.32C729.982 173.32 735.102 174.92 738.675 178.12C742.249 181.267 744.035 186.04 744.035 192.44V217H732.355V211.64C730.009 215.64 725.635 217.64 719.235 217.64C715.929 217.64 713.049 217.08 710.595 215.96C708.195 214.84 706.355 213.293 705.075 211.32C703.795 209.347 703.155 207.107 703.155 204.6C703.155 200.6 704.649 197.453 707.635 195.16C710.675 192.867 715.342 191.72 721.635 191.72H731.555C731.555 189 730.729 186.92 729.075 185.48C727.422 183.987 724.942 183.24 721.635 183.24C719.342 183.24 717.075 183.613 714.835 184.36C712.649 185.053 710.782 186.013 709.235 187.24L704.755 178.52C707.102 176.867 709.902 175.587 713.155 174.68C716.462 173.773 719.849 173.32 723.315 173.32ZM722.355 209.24C724.489 209.24 726.382 208.76 728.035 207.8C729.689 206.787 730.862 205.32 731.555 203.4V199H722.995C717.875 199 715.315 200.68 715.315 204.04C715.315 205.64 715.929 206.92 717.155 207.88C718.435 208.787 720.169 209.24 722.355 209.24ZM760.05 217.64C757.864 217.64 756.024 216.893 754.53 215.4C753.037 213.907 752.29 212.04 752.29 209.8C752.29 207.507 753.037 205.667 754.53 204.28C756.024 202.84 757.864 202.12 760.05 202.12C762.237 202.12 764.077 202.84 765.57 204.28C767.064 205.667 767.81 207.507 767.81 209.8C767.81 212.04 767.064 213.907 765.57 215.4C764.077 216.893 762.237 217.64 760.05 217.64ZM794.409 173.32C801.076 173.32 806.196 174.92 809.769 178.12C813.342 181.267 815.129 186.04 815.129 192.44V217H803.449V211.64C801.102 215.64 796.729 217.64 790.329 217.64C787.022 217.64 784.142 217.08 781.689 215.96C779.289 214.84 777.449 213.293 776.169 211.32C774.889 209.347 774.249 207.107 774.249 204.6C774.249 200.6 775.742 197.453 778.729 195.16C781.769 192.867 786.436 191.72 792.729 191.72H802.649C802.649 189 801.822 186.92 800.169 185.48C798.516 183.987 796.036 183.24 792.729 183.24C790.436 183.24 788.169 183.613 785.929 184.36C783.742 185.053 781.876 186.013 780.329 187.24L775.849 178.52C778.196 176.867 780.996 175.587 784.249 174.68C787.556 173.773 790.942 173.32 794.409 173.32ZM793.449 209.24C795.582 209.24 797.476 208.76 799.129 207.8C800.782 206.787 801.956 205.32 802.649 203.4V199H794.089C788.969 199 786.409 200.68 786.409 204.04C786.409 205.64 787.022 206.92 788.249 207.88C789.529 208.787 791.262 209.24 793.449 209.24ZM826.424 173.96H838.904V217H826.424V173.96ZM832.664 167.96C830.371 167.96 828.504 167.293 827.064 165.96C825.624 164.627 824.904 162.973 824.904 161C824.904 159.027 825.624 157.373 827.064 156.04C828.504 154.707 830.371 154.04 832.664 154.04C834.957 154.04 836.824 154.68 838.264 155.96C839.704 157.24 840.424 158.84 840.424 160.76C840.424 162.84 839.704 164.573 838.264 165.96C836.824 167.293 834.957 167.96 832.664 167.96Z" fill="white"/>
<defs>
<clipPath id="clip0_15_205">
<rect width="1116" height="110" fill="white"/>
</clipPath>
</defs>
</svg>
