<?xml version="1.0" encoding="UTF-8"?>
<svg id="Layer_2" data-name="Layer 2" xmlns="http://www.w3.org/2000/svg" viewBox="0 0 299.92 44.53">
  <defs>
    <style>
      .cls-1 {
        fill: #fff;
      }
    </style>
  </defs>
  <g id="Layer_1-2" data-name="Layer 1">
    <path id="União_12" data-name="União 12" class="cls-1" d="M141.41,13.38h4.42V29.73h-4.42V13.38Zm28.98,0h4.42V29.73h-4.42V13.38Zm14.13,9.93v-6.37h4.44v-3.55h-4.51v-4.27h-.84l-6.46,6.87v.95h2.96v6.96c0,3.64,2.21,5.84,5.81,5.84h3.15v-3.94h-2.02c-1.61,0-2.52-.9-2.52-2.48Zm28.44-15.82h4.42V29.73h-4.42V7.48Zm8.66,5.89h4.42V29.73h-4.42V13.38Zm20.68,.6v-.6h-12.84v4.01h6.3l-6.97,11.85v.49h13.52v-4.07h-6.89l6.89-11.68Zm53.2-.6h4.42V29.73h-4.42V13.38ZM137.09,7.48h-4.36v6.39c-1.33-.77-2.83-1.17-4.37-1.17h0c-4.83,0-8.75,3.92-8.75,8.75h0c0,4.84,3.92,8.75,8.75,8.75h0c4.55,0,8.34-3.48,8.72-8.02h0v-.03c.02-.23,0-14.69,0-14.69Zm-8.72,18.36h0c-2.42,.05-4.41-1.88-4.46-4.29-.05-2.42,1.88-4.41,4.29-4.46,.06,0,.11,0,.17,0h0c2.31,0,4.22,1.79,4.37,4.1v.55c-.15,2.3-2.06,4.1-4.37,4.1Zm29.19-13.13h0c-4.83,0-8.75,3.92-8.75,8.75h0c0,4.83,3.92,8.75,8.75,8.75h0c4.83,0,8.75-3.92,8.75-8.75h0c0-4.83-3.92-8.75-8.75-8.75Zm0,13.12h0c-2.42,.05-4.41-1.88-4.46-4.29-.05-2.42,1.88-4.41,4.29-4.46,.06,0,.11,0,.17,0h0c2.42-.05,4.41,1.88,4.46,4.29,.05,2.42-1.88,4.41-4.29,4.46-.06,0-.11,0-.17,0Zm0,7.21h0c-1.32,0-2.56-.59-3.39-1.62h-4.91c1.19,3.58,4.53,6,8.3,6h0c3.77,0,7.12-2.41,8.3-5.99h-4.91c-.83,1.02-2.08,1.61-3.39,1.61Zm52.13-12.62c-.52-4.4-4.26-7.72-8.7-7.72h0c-4.83,0-8.74,3.92-8.74,8.75h0c0,4.83,3.92,8.75,8.75,8.75h0c1.53,0,3.04-.4,4.37-1.16v.68h4.35l.03-8.26c0-.25-.06-1.04-.06-1.04Zm-8.7,5.41h0c-2.42,.05-4.41-1.88-4.46-4.29-.05-2.42,1.88-4.41,4.29-4.46,.06,0,.11,0,.17,0h0c2.31,0,4.22,1.79,4.37,4.1v.55c-.15,2.3-2.05,4.09-4.36,4.1h0Zm61.85-5.41c-.52-4.4-4.26-7.72-8.7-7.72h0c-4.83,0-8.74,3.92-8.74,8.75h0c0,4.83,3.92,8.75,8.75,8.75h0c1.53,0,3.04-.4,4.37-1.17v.68h4.35l.03-8.26c0-.24-.06-1.03-.06-1.03Zm-8.7,5.41h0c-2.42,.05-4.41-1.88-4.46-4.29-.05-2.42,1.88-4.41,4.29-4.46,.06,0,.11,0,.17,0h0c2.31,0,4.22,1.79,4.37,4.1v.55c-.15,2.3-2.05,4.09-4.36,4.1h0Zm36.83-5.41c-.52-4.4-4.26-7.72-8.69-7.72h0c-4.83,0-8.75,3.92-8.75,8.75h0c0,4.83,3.92,8.75,8.75,8.75h0c1.53,0,3.04-.4,4.37-1.17v.68h4.35l.03-8.26c0-.24-.07-1.03-.07-1.03Zm-8.69,5.41h0c-2.42,.05-4.41-1.88-4.46-4.29-.05-2.42,1.88-4.41,4.29-4.46,.06,0,.11,0,.17,0h0c2.31,0,4.22,1.79,4.37,4.1v.55c-.15,2.3-2.06,4.1-4.37,4.1h0ZM143.62,7.09c1.22,0,2.2,.99,2.2,2.2s-.99,2.2-2.2,2.2-2.2-.99-2.2-2.2,.99-2.2,2.2-2.2Zm28.98,.02c1.22,0,2.2,.99,2.2,2.2s-.99,2.2-2.2,2.2-2.2-.99-2.2-2.2,.99-2.2,2.2-2.2Zm51.23,0c1.22,0,2.2,.99,2.2,2.2s-.99,2.2-2.2,2.2-2.2-.99-2.2-2.2,.99-2.2,2.2-2.2Zm73.88,0c1.22,0,2.2,.99,2.2,2.2s-.99,2.2-2.2,2.2-2.2-.99-2.2-2.2,.99-2.2,2.2-2.2Zm-29.37,17.89c1.31,0,2.36,1.06,2.36,2.36s-1.06,2.36-2.36,2.36-2.36-1.06-2.36-2.36,1.06-2.36,2.36-2.36ZM109.11,44.53V0h1.57V44.53h-1.57Zm-37.56-7.92c.12-2.13,1.94-3.76,4.07-3.64,.98,.05,1.89,.48,2.57,1.18l-.85,.8c-.48-.54-1.18-.84-1.9-.83-1.38-.03-2.52,1.06-2.55,2.43s1.06,2.52,2.43,2.55c.04,0,.08,0,.12,0,.73,.01,1.42-.3,1.9-.84l.85,.81c-1.48,1.54-3.92,1.59-5.46,.11-.7-.68-1.13-1.6-1.18-2.57h0Zm-60.62,0c.12-2.13,1.94-3.76,4.07-3.64,.98,.05,1.89,.48,2.57,1.18l-.86,.8c-.48-.54-1.18-.84-1.9-.83-1.38-.03-2.52,1.06-2.55,2.43s1.06,2.52,2.43,2.55c.04,0,.08,0,.12,0,.73,.01,1.42-.3,1.9-.84l.86,.81c-1.48,1.54-3.92,1.59-5.46,.11-.7-.68-1.13-1.6-1.18-2.57h0Zm73.54,3.54v-3.04h-3.69v3.04h-1.32v-7.09h1.32v2.93h3.68v-2.93h1.32v7.09h-1.32Zm-19.2,0v-7.09h5.2v1.1h-3.88v1.84h3.44v1.08h-3.44v1.95h4.02v1.1h-5.34Zm-4.68,0v-5.98h-2.36v-1.12h6.05v1.12h-2.36v5.98h-1.33Zm-10.35,0v-7.09h1.32v5.98h3.73v1.11h-5.05Zm-2.29,0l-.71-1.64h-3.56l-.7,1.64h-1.36l3.21-7.09h1.3l3.22,7.09h-1.38Zm-3.83-2.67h2.68l-1.34-3.1-1.33,3.1Zm-5.83,2.67v-5.98h-2.36v-1.12h6.05v1.12h-2.36v5.98h-1.32Zm-4.69,0v-7.09h1.32v7.09h-1.32Zm-7.29,0v-7.09h2.93c1.87,0,3.03,.95,3.03,2.52s-1.16,2.52-3.03,2.52h-1.61v2.05h-1.32Zm1.32-3.16h1.55c1.16,0,1.76-.52,1.76-1.41s-.6-1.41-1.76-1.41h-1.55v2.82Zm-3.61,3.16l-.71-1.64h-3.56l-.7,1.64h-1.36l3.21-7.09h1.3l3.22,7.09h-1.38Zm-3.83-2.67h2.68l-1.34-3.1-1.33,3.1Zm3.4-11.87l2.14-6.98c-.33,.25-.59,.46-.87,.65-.99,.71-2.21,1.01-3.41,.84-1.26-.11-2.26-1.12-2.35-2.39-.09-.92,0-1.85,.3-2.73,.71-2.33,2.24-7.36,2.26-7.36,1.04,.02,2.47,0,3.56,0-.38,1.24-.74,2.42-1.1,3.6-.47,1.52-.94,3.03-1.39,4.55-.09,.28-.14,.56-.15,.85-.04,.8,.48,1.24,1.25,.98,.44-.14,.84-.38,1.17-.7,1.15-1.16,2.02-2.58,2.54-4.13,.52-1.56,.97-3.14,1.45-4.71,.04-.14,.09-.27,.15-.43,.93,.37,1.84,.72,2.75,1.1,.14,.06,.43,.16,.43,.16,.08-.1,.17-.19,.26-.27,1.01-.9,2.36-1.33,3.7-1.17,1.69,.25,3,1.61,3.19,3.31,.23,1.55,.02,3.13-.59,4.57-.05,.13-.11,.27-.19,.47,.88-.19,1.67-.67,2.25-1.36,.18-.22,.3-.47,.36-.75,.51-2.6,1.82-4.63,4.3-5.76,1.31-.6,2.79-.71,4.17-.31,1.3,.25,2.34,1.24,2.66,2.52,.3,1.35-.2,2.75-1.29,3.6-1.13,.97-2.54,1.54-4.03,1.65-.65,.08-1.3,.09-1.99,.13,.16,.88,.76,1.62,1.6,1.95,1.25,.49,2.66,.37,3.82-.3,1.83-.93,3.21-2.55,3.83-4.51,.98-3.06,3-9.64,3-9.64,0,0,2.48,0,3.55,0-.21,.69-.4,1.32-.59,1.94-1.1,3.57-2.2,7.13-3.3,10.7-.09,.28-.15,.56-.19,.84-.11,.82,.45,1.36,1.24,1.09,.52-.18,.98-.48,1.36-.88,1.09-1.16,1.91-2.55,2.4-4.06,.49-1.55,.97-3.11,1.44-4.67,.03-.24,.25-.41,.49-.37,0,0,.01,0,.02,0,1.03,.02,2.05,0,3.15,0-.12,.42-.22,.79-.34,1.15-.7,2.27-1.4,4.55-2.09,6.82-.11,.31-.18,.64-.22,.97-.06,.87,.5,1.33,1.32,1.01,.5-.19,.94-.49,1.3-.88,1.28-1.42,2.2-3.13,2.68-4.98,.37-1.36,.82-2.7,1.25-4.09,1.03,.52,2.23,1.15,3.13,1.61,1.11-1.86,3.36-1.89,4.14-1.74,1.37,.25,2.34,1.5,2.24,2.89-.03,.83-.15,1.66-.37,2.46-.29,1.13-.68,2.23-1.01,3.35-.08,.26-.13,.53-.14,.8-.06,.32,.15,.63,.47,.69,.13,.02,.27,0,.39-.06,.27-.09,.53-.24,.75-.42,.89-.8,1.62-1.78,2.12-2.87,.13-.41,.21-.83,.26-1.26,.71-2.6,2.19-4.52,4.85-5.38,1.1-.36,2.27-.38,3.38-.08,1.34,.23,2.41,1.23,2.74,2.55,.3,1.32-.18,2.69-1.23,3.55-1.14,1-2.58,1.6-4.09,1.7-.65,.08-1.3,.09-1.95,.13,.24,1.28,1.35,2.21,2.65,2.22,1.77,.11,3.48-.63,4.62-1.98,.72-.85,1.38-1.76,1.97-2.71,0,0,1.34,.7,1.34,.73-.43,.75-.85,1.58-1.33,2.3-1.23,2-3.21,3.42-5.5,3.94-1.28,.29-2.61,.26-3.87-.07-1.6-.39-2.91-1.55-3.48-3.09-.12,.15-.22,.28-.32,.4-.78,1.15-1.87,2.04-3.14,2.58-.46,.17-.95,.27-1.44,.29-1.27,.19-2.45-.69-2.64-1.96-.02-.17-.03-.34-.02-.5,.02-.88,.14-1.75,.37-2.59,.26-1.09,.68-2.15,.91-3.24,.23-1.08-.51-1.72-1.57-1.41-1.04,.25-1.86,1.02-2.18,2.04-.72,2.34-1.61,5.1-2.31,7.45h-3.51c.13-.43,.24-.83,.36-1.23-.55,.34-1.05,.7-1.6,.99-.88,.46-1.9,.6-2.87,.39-.96-.15-1.74-.85-1.99-1.78-.05-.16-.09-.33-.16-.57-.16,.17-.28,.31-.4,.44-.91,1.09-2.2,1.79-3.61,1.97-1.77,.17-3.21-.58-3.43-2.47-.02-.05-.04-.11-.07-.16-.2,.18-.38,.36-.57,.52-2.39,2.1-6.01,2.57-8.16,1.78-1.46-.43-2.61-1.58-3.04-3.04-.04-.12-.09-.24-.14-.4-1.07,.91-2.47,1.36-3.87,1.24-.31,.39-.65,.75-1.02,1.09-1.01,1.06-2.46,1.58-3.91,1.42-1.28-.09-2.38-.92-2.83-2.13-.04-.09-.08-.18-.15-.33-.52,1.69-1.02,3.3-1.52,4.92-.27,.87-.71,2.12-.95,2.99h-3.53Zm7.1-10.06c.15,.98,1.07,1.65,2.05,1.5,.31-.05,.6-.18,.85-.37-1.67-1.48-1.79-1.68-2.33-4.08-.52,.89-.71,1.93-.56,2.95h0Zm2.24-4.03c-.42,1.63,.44,3.32,2,3.94,.83-1.11,1.18-2.51,.96-3.89-.07-.74-.69-1.31-1.43-1.32h-.04c-.74,0-1.36,.54-1.49,1.26h0Zm56.28-1.06c-1.41,.18-2.73,1.8-2.78,3.41,1.16,.05,2.31-.26,3.28-.89,.28-.2,.52-.46,.7-.75,.3-.39,.31-.93,.04-1.34-.21-.3-.57-.47-.94-.45-.1,0-.2,0-.3,.02h0Zm-42.67,.57c-.84,.72-1.38,1.72-1.51,2.82,1.15,.07,2.29-.21,3.27-.81,.46-.28,.8-.73,.95-1.25,.17-.53-.12-1.1-.65-1.27-.06-.02-.13-.03-.2-.04-.12-.02-.25-.03-.37-.03-.55,.01-1.07,.22-1.49,.58h0ZM2.77,19.94c1.59-5.18,3.16-10.3,4.74-15.44-2.93,.37-5.32,3.24-3.38,7.02l-2.52,2.03c-.63-.62-1.09-1.39-1.32-2.24C.02,10.26-.06,9.18,.05,8.1c.18-1.1,.64-2.14,1.34-3,1.25-1.52,2.98-2.57,4.9-2.99,.75-.21,1.51-.35,2.29-.44,1.73-.18,3.48-.03,5.16,.44,1.7,.34,3.24,1.25,4.38,2.57,1.74,2.15,1.8,4.52,.66,6.94-1.34,2.75-4.24,4.39-7.29,4.12-1.21-.07-2.39-.4-3.46-.96-.23,.73-.45,1.42-.66,2.12-.29,.92-.98,3.05-.98,3.05H2.77Zm6.01-7.66c0,.13,.06,.24,.17,.31,2.35,1.07,5.13,.1,6.29-2.21,.87-1.94,.44-3.92-1.13-5.04-.86-.58-1.86-.93-2.89-1.02-.82,2.68-1.64,5.32-2.43,7.96h0Zm15.66-6.01c-1.11,.01-2.02-.88-2.03-1.99,0-.03,0-.06,0-.1-.04-1.15,.87-2.11,2.02-2.15,1.15-.04,2.11,.87,2.15,2.02,0,.06,0,.12,0,.18,0,1.11-.89,2.02-2,2.03-.03,0-.07,0-.1,0h-.03Zm41.73,0c-1.1,.03-2.02-.83-2.05-1.93,0-.04,0-.09,0-.13-.02-1.14,.89-2.09,2.03-2.11,1.14-.02,2.09,.89,2.11,2.03,0,.03,0,.05,0,.08,.03,1.11-.85,2.03-1.96,2.06-.04,0-.09,0-.13,0h0Z"/>
  </g>
</svg>